<svg width="256" height="256" viewBox="0 0 256 256" fill="none" xmlns="http://www.w3.org/2000/svg">
<rect x="7.5" y="7.5" width="241" height="241" fill="#E9EAFF"/>
<path d="M53.9494 176C52.4684 176 51.4399 175.685 50.8639 175.054C50.288 174.332 50 173.115 50 171.403V84.5972C50 82.8845 50.288 81.7127 50.8639 81.0817C51.4399 80.3606 52.4684 80 53.9494 80H60.4905C62.1361 80 63.3291 80.2254 64.0696 80.6761C64.8924 81.1268 65.5918 82.0732 66.1677 83.5155L88.8766 135.437L111.585 83.6507C112.244 82.1183 112.861 81.1268 113.437 80.6761C114.095 80.2254 115.206 80 116.769 80H123.927C125.491 80 126.56 80.3606 127.136 81.0817C127.712 81.7127 128 82.8845 128 84.5972V171.403C128 173.115 127.712 174.332 127.136 175.054C126.56 175.685 125.491 176 123.927 176H117.139C115.658 176 114.63 175.685 114.054 175.054C113.478 174.332 113.19 173.115 113.19 171.403V130.163C113.19 121.51 113.972 112.541 115.535 103.256H114.794C112.244 112.27 109.323 120.473 106.032 127.865L95.6646 150.851C95.0886 152.113 94.4715 153.014 93.8133 153.555C93.2373 154.006 92.3734 154.231 91.2215 154.231H86.4082C85.1741 154.231 84.269 154.006 83.693 153.555C83.1171 153.104 82.5411 152.203 81.9652 150.851L71.2279 127.865C69.4177 123.989 67.8956 120.248 66.6614 116.642C65.5095 112.946 64.2753 108.439 62.9589 103.121H62.0949C63.7405 112.946 64.5633 122.006 64.5633 130.299V171.403C64.5633 173.115 64.2753 174.332 63.6994 175.054C63.1234 175.685 62.0949 176 60.6139 176H53.9494Z" fill="url(#paint0_linear_553_423)"/>
<path d="M172.558 176C155.732 176 145.006 168.778 140.379 154.335C140.126 153.384 140 152.649 140 152.13C140 150.486 140.968 149.362 142.902 148.757L150.348 146.162C151.358 145.816 152.031 145.643 152.367 145.643C153.124 145.643 153.713 145.903 154.134 146.422C154.639 146.941 155.101 147.762 155.522 148.886C156.952 152.778 159.098 155.762 161.958 157.838C164.902 159.827 168.436 160.822 172.558 160.822C178.279 160.822 182.57 159.741 185.43 157.578C188.375 155.33 189.847 151.914 189.847 147.33C189.847 143.265 188.333 140.411 185.304 138.768C182.359 137.038 178.027 135.827 172.306 135.135C166.249 134.357 161.033 133.276 156.658 131.892C152.283 130.422 148.539 127.784 145.426 123.978C142.398 120.173 140.883 114.811 140.883 107.892C140.883 102.357 142.103 97.5135 144.543 93.3622C147.067 89.1243 150.727 85.8378 155.522 83.5027C160.402 81.1676 166.249 80 173.063 80C180.971 80 187.281 81.6432 191.992 84.9297C196.704 88.2162 200.532 93.1459 203.476 99.7189C203.897 100.843 204.107 101.708 204.107 102.314C204.107 103.784 203.182 104.908 201.331 105.686L194.264 108.541C193.507 108.886 192.792 109.059 192.119 109.059C191.53 109.059 190.983 108.843 190.478 108.411C190.057 107.978 189.637 107.243 189.216 106.205C186.103 99.1135 180.719 95.5676 173.063 95.5676C167.511 95.5676 163.43 96.5622 160.822 98.5514C158.214 100.454 156.91 103.438 156.91 107.503C156.91 111.741 158.551 114.724 161.832 116.454C165.113 118.184 169.95 119.395 176.344 120.086C185.01 121.211 192.119 123.719 197.671 127.611C203.224 131.503 206 138.249 206 147.849C206 156.497 203.055 163.373 197.166 168.476C191.361 173.492 183.159 176 172.558 176Z" fill="url(#paint1_linear_553_423)"/>
<rect x="7.5" y="7.5" width="241" height="241" stroke="url(#paint2_linear_553_423)" stroke-width="15"/>
<defs>
<linearGradient id="paint0_linear_553_423" x1="68.3061" y1="80" x2="209.83" y2="179.899" gradientUnits="userSpaceOnUse">
<stop stop-color="#860471"/>
<stop offset="1" stop-color="#6368DA"/>
</linearGradient>
<linearGradient id="paint1_linear_553_423" x1="68.3061" y1="80" x2="209.83" y2="179.899" gradientUnits="userSpaceOnUse">
<stop stop-color="#860471"/>
<stop offset="1" stop-color="#6368DA"/>
</linearGradient>
<linearGradient id="paint2_linear_553_423" x1="30.0408" y1="-1.79078e-05" x2="322.769" y2="127.158" gradientUnits="userSpaceOnUse">
<stop stop-color="#860471"/>
<stop offset="1" stop-color="#6368DA"/>
</linearGradient>
</defs>
</svg>
